<mxfile host="app.diagrams.net" agent="Mozilla/5.0 (Windows NT 10.0; Win64; x64) AppleWebKit/537.36 (KHTML, like Gecko) Chrome/137.0.0.0 Safari/537.36" version="26.2.7">
  <diagram name="Page-1" id="ALo3RG6ubM7gt9iAJRdz">
    <mxGraphModel dx="1724" dy="507" grid="1" gridSize="10" guides="1" tooltips="1" connect="1" arrows="1" fold="1" page="1" pageScale="1" pageWidth="850" pageHeight="1100" background="#ffffff" math="0" shadow="0">
      <root>
        <mxCell id="0" />
        <mxCell id="1" parent="0" />
        <mxCell id="kwODILl6aRdH7XV7FYyk-1" value="" style="rounded=0;whiteSpace=wrap;html=1;fontStyle=1;labelBackgroundColor=none;fillColor=#09555B;strokeColor=#BAC8D3;fontColor=#EEEEEE;fontSize=40;" parent="1" vertex="1">
          <mxGeometry x="-820" y="120" width="780" height="80" as="geometry" />
        </mxCell>
        <mxCell id="kwODILl6aRdH7XV7FYyk-2" value="Even numbers" style="shape=partialRectangle;whiteSpace=wrap;html=1;right=0;top=0;bottom=0;fillColor=none;routingCenterX=-0.5;labelBackgroundColor=none;strokeColor=#BAC8D3;fontColor=#EEEEEE;fontFamily=Comic Sans MS;fontSize=40;fontStyle=1;align=center;textDirection=ltr;labelPosition=center;verticalLabelPosition=middle;verticalAlign=middle;" parent="1" vertex="1">
          <mxGeometry x="-795" y="145" width="720" height="30" as="geometry" />
        </mxCell>
        <mxCell id="UwFvmCMwFvKqzyGPFkwi-1" value="" style="line;strokeWidth=2;direction=south;html=1;strokeColor=#BAC8D3;fontColor=#EEEEEE;fillColor=#09555B;labelBackgroundColor=none;" vertex="1" parent="1">
          <mxGeometry x="520" y="90" width="10" height="400" as="geometry" />
        </mxCell>
        <mxCell id="UwFvmCMwFvKqzyGPFkwi-2" value="" style="line;strokeWidth=2;direction=south;html=1;strokeColor=#BAC8D3;fontColor=#EEEEEE;fillColor=#09555B;" vertex="1" parent="1">
          <mxGeometry x="-440" y="210" width="10" height="250" as="geometry" />
        </mxCell>
        <mxCell id="UwFvmCMwFvKqzyGPFkwi-3" style="edgeStyle=orthogonalEdgeStyle;rounded=0;orthogonalLoop=1;jettySize=auto;html=1;exitX=0;exitY=0.5;exitDx=0;exitDy=0;exitPerimeter=0;entryX=0.487;entryY=1.038;entryDx=0;entryDy=0;entryPerimeter=0;strokeColor=#0B4D6A;" edge="1" parent="1" source="UwFvmCMwFvKqzyGPFkwi-2" target="kwODILl6aRdH7XV7FYyk-1">
          <mxGeometry relative="1" as="geometry">
            <Array as="points">
              <mxPoint x="-440" y="210" />
            </Array>
          </mxGeometry>
        </mxCell>
        <mxCell id="UwFvmCMwFvKqzyGPFkwi-4" value="" style="ellipse;whiteSpace=wrap;html=1;aspect=fixed;strokeColor=#BAC8D3;fontColor=#EEEEEE;fillColor=#09555B;" vertex="1" parent="1">
          <mxGeometry x="-780" y="230" width="110" height="110" as="geometry" />
        </mxCell>
      </root>
    </mxGraphModel>
  </diagram>
</mxfile>
